<svg width="236" height="92" viewBox="0 0 236 92" fill="none" xmlns="http://www.w3.org/2000/svg">
<path fill-rule="evenodd" clip-rule="evenodd" d="M157.974 65.1222H206.391C212.118 65.1222 217.129 63.7543 221.425 61.0185C225.72 58.3082 229.07 54.5114 231.473 49.6278C233.851 44.7443 235.04 39.0554 235.04 32.5611C235.04 26.0412 233.851 20.3395 231.473 15.456C229.07 10.5724 225.72 6.77557 221.425 4.06534C217.129 1.35511 212.118 -2.50347e-07 206.391 0L105.307 1.71661e-05C99.5795 1.71661e-05 94.5682 1.35513 90.2727 4.06536C85.9773 6.77559 82.6278 10.5725 80.2244 15.456C78.6511 18.6873 77.5982 22.2768 77.0659 26.2245H66.0602L28.6491 26.2245C22.9219 26.2245 17.9105 27.5924 13.6151 30.3282C9.3196 33.0384 5.97017 36.8353 3.56676 41.7188C1.18892 46.6023 0 52.2912 0 58.7855C0 65.3054 1.18892 71.0071 3.56676 75.8907C5.97017 80.7742 9.3196 84.5711 13.6151 87.2813C17.9105 89.9915 22.9219 91.3466 28.6492 91.3466H129.733C135.46 91.3466 140.472 89.9915 144.767 87.2813C149.062 84.571 152.412 80.7742 154.815 75.8906C156.389 72.6594 157.441 69.0699 157.974 65.1222ZM157.235 48.5156C156.652 46.099 155.845 43.8334 154.815 41.7188C152.412 36.8352 149.062 33.0384 144.767 30.3281C140.472 27.5924 135.46 26.2245 129.733 26.2245H92.3219C92.5862 25.5073 92.9003 24.8198 93.2642 24.1619C94.5937 21.7585 96.4219 19.8921 98.7486 18.5625C101.075 17.2585 103.734 16.6066 106.726 16.6066L204.972 16.6065C207.963 16.6065 210.622 17.2585 212.949 18.5625C215.276 19.892 217.104 21.7585 218.433 24.1619C218.766 24.7628 219.056 25.3884 219.306 26.0388C219.322 26.0809 219.338 26.1232 219.354 26.1655L219.376 26.2244C220.077 28.1276 220.428 30.2398 220.428 32.5611C220.428 35.7827 219.763 38.5824 218.433 40.9602C218.065 41.626 217.658 42.2496 217.214 42.831C216.053 44.3484 214.631 45.5785 212.949 46.5213C210.622 47.8509 207.963 48.5156 204.972 48.5156H157.235ZM105.307 65.1222H142.718C142.454 65.8394 142.139 66.5269 141.776 67.1847C140.446 69.5881 138.618 71.4546 136.291 72.7841C133.964 74.0881 131.305 74.7401 128.314 74.7401L30.0682 74.7401C27.0767 74.7401 24.4176 74.0881 22.0909 72.7841C19.7642 71.4546 17.9361 69.5881 16.6065 67.1847C16.2426 66.5269 15.9285 65.8394 15.6642 65.1222C14.9629 63.219 14.6122 61.1068 14.6122 58.7855C14.6122 55.5639 15.277 52.7642 16.6065 50.3864C16.9748 49.7206 17.3814 49.0971 17.8262 48.5157C18.9871 46.9982 20.4087 45.7681 22.0909 44.8253C24.4176 43.4958 27.0767 42.831 30.0682 42.831L77.8043 42.831C78.3881 45.2476 79.1948 47.5132 80.2244 49.6279C82.6278 54.5114 85.9772 58.3083 90.2727 61.0185C94.5682 63.7543 99.5795 65.1222 105.307 65.1222ZM98.7486 46.5213C97.0664 45.5786 95.6448 44.3484 94.4838 42.831H128.314C131.305 42.831 133.964 43.4958 136.291 44.8253C137.973 45.7681 139.395 46.9982 140.556 48.5156L106.726 48.5156C103.734 48.5156 101.075 47.8509 98.7486 46.5213Z" fill="url(#paint0_radial_231_1042)"/>
<defs>
<radialGradient id="paint0_radial_231_1042" cx="0" cy="0" r="1" gradientUnits="userSpaceOnUse" gradientTransform="translate(35.6733 29.7244) rotate(45) scale(130.108 334.774)">
<stop stop-color="#FB543A"/>
<stop offset="1" stop-color="#FB3A80"/>
</radialGradient>
</defs>
</svg>
