<svg width="151" height="27" viewBox="0 0 151 27" fill="none" xmlns="http://www.w3.org/2000/svg">
<g clip-path="url(#clip0_321_1450)">
<path fill-rule="evenodd" clip-rule="evenodd" d="M0.045438 11.5831L0.0454381 9.26859C0.0765268 8.88273 0.123569 8.50789 0.186564 8.14408L14.7443 8.14408C16.3947 8.14408 17.8388 8.54015 19.0766 9.33229C20.3144 10.117 21.2796 11.2164 21.9722 12.6304C22.3315 13.372 22.5967 14.1777 22.7676 15.0476C22.854 15.4876 22.9163 15.944 22.9546 16.4169C22.9849 16.7916 23 17.1767 23 17.572C23 17.969 22.9849 18.3554 22.9546 18.7314C22.9235 19.1173 22.8764 19.4921 22.8134 19.8559C22.6459 20.8236 22.3655 21.7132 21.9722 22.5248C21.2796 23.9388 20.3144 25.0382 19.0766 25.8229C17.8388 26.6076 16.3947 27 14.7443 27L0.0454373 27L0.0454375 22.1916H14.3354C15.1974 22.1916 15.9637 22.0028 16.6342 21.6253C17.3046 21.2403 17.8314 20.6999 18.2146 20.004C18.5977 19.3081 18.7893 18.4974 18.7893 17.572C18.7893 16.6392 18.5977 15.8286 18.2146 15.1401C17.8314 14.4442 17.3046 13.9075 16.6342 13.5299C15.9637 13.1449 15.1974 12.9524 14.3354 12.9524L0.23244 12.9524C0.145993 12.5124 0.0836592 12.056 0.045438 11.5831Z" fill="white" fill-opacity="0.8"/>
<path fill-rule="evenodd" clip-rule="evenodd" d="M22.9546 16.4169V18.7314C22.9235 19.1173 22.8764 19.4921 22.8134 19.8559H8.25569C6.60529 19.8559 5.16118 19.4599 3.92338 18.6677C2.68558 17.883 1.72039 16.7836 1.02781 15.3696C0.668458 14.628 0.403333 13.8223 0.23244 12.9524C0.145993 12.5124 0.0836592 12.056 0.045438 11.5831C0.015146 11.2084 -1.71998e-08 10.8233 0 10.428C1.72675e-08 10.031 0.015146 9.64458 0.0454381 9.26859C0.0765268 8.88273 0.123569 8.50789 0.186564 8.14408C0.354119 7.17642 0.634536 6.2868 1.02782 5.47523C1.72039 4.06122 2.68559 2.96184 3.92339 2.17711C5.16119 1.39237 6.60529 1 8.25569 1L22.9546 1V5.80837L8.6646 5.80837C7.80256 5.80837 7.03631 5.99715 6.36583 6.37471C5.69536 6.75968 5.16855 7.30011 4.78542 7.99601C4.4023 8.69191 4.21073 9.50256 4.21073 10.428C4.21073 11.3608 4.4023 12.1714 4.78542 12.8599C5.16855 13.5558 5.69536 14.0925 6.36583 14.4701C7.03631 14.8551 7.80256 15.0476 8.6646 15.0476H22.7676C22.854 15.4876 22.9163 15.944 22.9546 16.4169Z" fill="white" fill-opacity="0.8"/>
<path d="M38.8296 21.252C37.8576 21.252 36.9996 21.078 36.2556 20.73C35.5116 20.382 34.9296 19.884 34.5096 19.236C34.0896 18.588 33.8796 17.808 33.8796 16.896V16.392H36.2196V16.896C36.2196 17.652 36.4536 18.222 36.9216 18.606C37.3896 18.978 38.0256 19.164 38.8296 19.164C39.6456 19.164 40.2516 19.002 40.6476 18.678C41.0556 18.354 41.2596 17.94 41.2596 17.436C41.2596 17.088 41.1576 16.806 40.9536 16.59C40.7616 16.374 40.4736 16.2 40.0896 16.068C39.7176 15.924 39.2616 15.792 38.7216 15.672L38.3076 15.582C37.4436 15.39 36.6996 15.15 36.0756 14.862C35.4636 14.562 34.9896 14.172 34.6536 13.692C34.3296 13.212 34.1676 12.588 34.1676 11.82C34.1676 11.052 34.3476 10.398 34.7076 9.858C35.0796 9.306 35.5956 8.886 36.2556 8.598C36.9276 8.298 37.7136 8.148 38.6136 8.148C39.5136 8.148 40.3116 8.304 41.0076 8.616C41.7156 8.916 42.2676 9.372 42.6636 9.984C43.0716 10.584 43.2756 11.34 43.2756 12.252V12.792H40.9356V12.252C40.9356 11.772 40.8396 11.388 40.6476 11.1C40.4676 10.8 40.2036 10.584 39.8556 10.452C39.5076 10.308 39.0936 10.236 38.6136 10.236C37.8936 10.236 37.3596 10.374 37.0116 10.65C36.6756 10.914 36.5076 11.28 36.5076 11.748C36.5076 12.06 36.5856 12.324 36.7416 12.54C36.9096 12.756 37.1556 12.936 37.4796 13.08C37.8036 13.224 38.2176 13.35 38.7216 13.458L39.1356 13.548C40.0356 13.74 40.8156 13.986 41.4756 14.286C42.1476 14.586 42.6696 14.982 43.0416 15.474C43.4136 15.966 43.5996 16.596 43.5996 17.364C43.5996 18.132 43.4016 18.81 43.0056 19.398C42.6216 19.974 42.0696 20.43 41.3496 20.766C40.6416 21.09 39.8016 21.252 38.8296 21.252ZM50.2316 21.252C49.1996 21.252 48.3116 21.066 47.5676 20.694C46.8356 20.31 46.2716 19.77 45.8756 19.074C45.4916 18.366 45.2996 17.532 45.2996 16.572V8.4H47.6756V16.644C47.6756 17.412 47.8916 18.018 48.3236 18.462C48.7676 18.906 49.4036 19.128 50.2316 19.128C51.0596 19.128 51.6896 18.906 52.1216 18.462C52.5656 18.018 52.7876 17.412 52.7876 16.644V8.4H55.1636V16.572C55.1636 17.532 54.9656 18.366 54.5696 19.074C54.1856 19.77 53.6216 20.31 52.8776 20.694C52.1456 21.066 51.2636 21.252 50.2316 21.252ZM65.6537 21.252C64.3577 21.252 63.3257 20.898 62.5577 20.19C61.8017 19.482 61.4237 18.492 61.4237 17.22V16.032H63.7997V17.22C63.7997 17.784 63.9557 18.228 64.2677 18.552C64.5797 18.864 65.0177 19.02 65.5817 19.02C66.1097 19.02 66.5177 18.864 66.8057 18.552C67.1057 18.24 67.2557 17.796 67.2557 17.22V10.56H65.0957V8.4H71.0717V10.56H69.6317V17.22C69.6317 18.528 69.2777 19.53 68.5697 20.226C67.8617 20.91 66.8897 21.252 65.6537 21.252ZM73.022 21V8.4H81.122V10.56H75.398V13.566H80.618V15.726H75.398V18.84H81.23V21H73.022ZM87.8848 21.252C86.3008 21.252 85.0408 20.82 84.1048 19.956C83.1688 19.08 82.7008 17.832 82.7008 16.212V13.188C82.7008 11.568 83.1688 10.326 84.1048 9.462C85.0408 8.586 86.3008 8.148 87.8848 8.148C89.4688 8.148 90.7288 8.586 91.6648 9.462C92.6008 10.326 93.0688 11.568 93.0688 13.188V16.212C93.0688 17.832 92.6008 19.08 91.6648 19.956C90.7288 20.82 89.4688 21.252 87.8848 21.252ZM87.8848 19.128C88.7728 19.128 89.4628 18.87 89.9548 18.354C90.4468 17.838 90.6928 17.148 90.6928 16.284V13.116C90.6928 12.252 90.4468 11.562 89.9548 11.046C89.4628 10.53 88.7728 10.272 87.8848 10.272C87.0088 10.272 86.3188 10.53 85.8148 11.046C85.3228 11.562 85.0768 12.252 85.0768 13.116V16.284C85.0768 17.148 85.3228 17.838 85.8148 18.354C86.3188 18.87 87.0088 19.128 87.8848 19.128ZM95.1528 21V8.4H99.6708L102.173 19.38H102.497V8.4H104.837V21H100.319L97.8168 10.02H97.4928V21H95.1528ZM111.567 21.252C110.703 21.252 109.917 21.06 109.209 20.676C108.513 20.28 107.955 19.71 107.535 18.966C107.127 18.21 106.923 17.292 106.923 16.212V13.188C106.923 11.568 107.379 10.326 108.291 9.462C109.203 8.586 110.439 8.148 111.999 8.148C113.547 8.148 114.741 8.562 115.581 9.39C116.433 10.206 116.859 11.316 116.859 12.72V12.792H114.519V12.648C114.519 12.204 114.423 11.802 114.231 11.442C114.051 11.082 113.775 10.8 113.403 10.596C113.031 10.38 112.563 10.272 111.999 10.272C111.159 10.272 110.499 10.53 110.019 11.046C109.539 11.562 109.299 12.264 109.299 13.152V16.248C109.299 17.124 109.539 17.832 110.019 18.372C110.499 18.9 111.171 19.164 112.035 19.164C112.899 19.164 113.529 18.936 113.925 18.48C114.321 18.024 114.519 17.448 114.519 16.752V16.572H111.531V14.556H116.859V21H114.663V19.794H114.339C114.255 19.998 114.117 20.214 113.925 20.442C113.745 20.67 113.469 20.862 113.097 21.018C112.725 21.174 112.215 21.252 111.567 21.252ZM123.7 21V8.4H126.076V13.602H130.756V8.4H133.132V21H130.756V15.762H126.076V21H123.7ZM134.648 21L137.96 8.4H142.1L145.412 21H142.964L142.28 18.228H137.78L137.096 21H134.648ZM138.338 16.032H141.722L140.192 9.894H139.868L138.338 16.032Z" fill="white" fill-opacity="0.8"/>
</g>
<defs>
<clipPath id="clip0_321_1450">
<rect width="151" height="27" fill="white"/>
</clipPath>
</defs>
</svg>
